<?xml version="1.0" encoding="UTF-8"?><svg id="Layer_2" xmlns="http://www.w3.org/2000/svg" viewBox="0 0 489.02 489.88"><defs><style>.cls-1{fill:#7a7d80;stroke-width:0px;}</style></defs><g id="Interior"><path class="cls-1" d="m249.61.91c-4.04-1.25-8.28-1.19-12.23.05C105.84,4.74,0,112.92,0,245.36s109.68,244.51,244.51,244.51,243.81-109.68,244.51-244.51C489.02,112.24,382.1,3.63,249.61.91Zm-5.79,439.12c-2.17-2.25-4.27-4.49-6.29-6.74-24.9-27.76-43.28-59.13-55.21-92.22h123.41c-13.11,36.04-33.79,69.86-61.91,98.96Zm-73.02-140.87c-6.87-35.57-6.78-72.14.16-107.58h146.71c6.83,35.55,6.71,72.13-.26,107.58h-146.6Zm-128.88-53.79c0-18.62,2.52-36.66,7.24-53.79h79.61c-6.01,35.65-5.96,72.05.06,107.58H49.16c-4.72-17.13-7.24-35.17-7.24-53.79ZM244.47,50.67c2.18,2.26,4.29,4.52,6.32,6.77,25,27.7,43.43,59.08,55.36,92.22h-123.57c13.09-36.03,33.75-69.86,61.89-98.99Zm115.5,140.91h79.89c4.72,17.13,7.24,35.17,7.24,53.79s-2.52,36.66-7.24,53.79h-79.92c6.02-35.65,6-72.05.03-107.58Zm63.09-41.92h-73.05c-10.94-35.33-28.07-69.08-51.33-99.54,53.71,14.9,98.49,51.4,124.38,99.54ZM190.31,50.12c-23.46,30.65-40.61,64.38-51.54,99.53h-72.81c25.88-48.13,70.66-84.63,124.36-99.53Zm-124.36,290.95h72.89c10.99,35.33,28.18,69.08,51.46,99.53-53.7-14.91-98.46-51.41-124.35-99.53Zm232.63,99.57c23.35-30.66,40.45-64.4,51.36-99.57h73.11c-25.9,48.16-70.72,84.68-124.48,99.57Z"/></g></svg>